# Blender v2.93.1 OBJ File: 'Curve8.blend'
# www.blender.org
mtllib Curve8.mtl
o BezierCurve
v -0.012391 0.022077 0.000019
v 0.012609 0.022077 -0.000048
v 0.025109 0.000426 -0.000081
v 0.012609 -0.021224 -0.000048
v -0.012391 -0.021224 0.000019
v -0.024891 0.000426 0.000053
v -0.009701 0.022076 -0.094572
v 0.015256 0.022076 -0.093101
v 0.027734 0.000425 -0.092365
v 0.015256 -0.021225 -0.093100
v -0.009701 -0.021225 -0.094571
v -0.022179 0.000425 -0.095307
v -0.001250 0.022072 -0.188917
v 0.023574 0.022072 -0.185954
v 0.035986 0.000422 -0.184472
v 0.023574 -0.021229 -0.185952
v -0.001250 -0.021229 -0.188914
v -0.013662 0.000422 -0.190397
v 0.012771 0.022066 -0.282827
v 0.037382 0.022067 -0.278434
v 0.049688 0.000416 -0.276236
v 0.037382 -0.021235 -0.278431
v 0.012771 -0.021235 -0.282824
v 0.000465 0.000416 -0.285022
v 0.032173 0.022059 -0.376122
v 0.056501 0.022059 -0.370363
v 0.068664 0.000408 -0.367481
v 0.056500 -0.021242 -0.370359
v 0.032173 -0.021243 -0.376118
v 0.020009 0.000408 -0.379000
v 0.056766 0.022049 -0.468622
v 0.080748 0.022049 -0.461562
v 0.092739 0.000399 -0.458029
v 0.080748 -0.021252 -0.461557
v 0.056765 -0.021252 -0.468617
v 0.044774 0.000398 -0.472150
v 0.086361 0.022037 -0.560147
v 0.109944 0.022038 -0.551851
v 0.121735 0.000388 -0.547700
v 0.109943 -0.021263 -0.551845
v 0.086360 -0.021264 -0.560142
v 0.074569 0.000386 -0.564292
v 0.120769 0.022024 -0.650519
v 0.143906 0.022025 -0.641049
v 0.155474 0.000375 -0.636312
v 0.143905 -0.021276 -0.641043
v 0.120767 -0.021277 -0.650513
v 0.109199 0.000373 -0.655250
v 0.159801 0.022010 -0.739559
v 0.182451 0.022011 -0.728977
v 0.193776 0.000361 -0.723683
v 0.182450 -0.021290 -0.728970
v 0.159800 -0.021291 -0.739552
v 0.148476 0.000359 -0.744846
v 0.203272 0.021994 -0.827089
v 0.225398 0.021995 -0.815452
v 0.236461 0.000345 -0.809630
v 0.225397 -0.021306 -0.815445
v 0.203270 -0.021307 -0.827081
v 0.192207 0.000343 -0.832903
v 0.250992 0.021977 -0.912931
v 0.272563 0.021979 -0.900293
v 0.283347 0.000329 -0.893971
v 0.272561 -0.021322 -0.900286
v 0.250990 -0.021324 -0.912923
v 0.240206 0.000326 -0.919246
v 0.302776 0.021960 -0.996908
v 0.323761 0.021961 -0.983320
v 0.334252 0.000311 -0.976521
v 0.323759 -0.021340 -0.983311
v 0.302774 -0.021342 -0.996900
v 0.292283 0.000308 -1.003698
v 0.358438 0.021941 -1.078842
v 0.378809 0.021943 -1.064349
v 0.388993 0.000293 -1.057098
v 0.378806 -0.021358 -1.064341
v 0.358436 -0.021360 -1.078834
v 0.348252 0.000290 -1.086084
v 0.417792 0.021922 -1.158555
v 0.437521 0.021924 -1.143201
v 0.447385 0.000274 -1.135519
v 0.437519 -0.021377 -1.143192
v 0.417789 -0.021379 -1.158546
v 0.407926 0.000271 -1.166228
v 0.480652 0.021903 -1.235869
v 0.499714 0.021905 -1.219693
v 0.509243 0.000255 -1.211600
v 0.499711 -0.021397 -1.219684
v 0.480650 -0.021399 -1.235860
v 0.471120 0.000251 -1.243953
v 0.546834 0.021883 -1.310606
v 0.565200 0.021885 -1.293645
v 0.574382 0.000235 -1.285160
v 0.565197 -0.021416 -1.293636
v 0.546831 -0.021419 -1.310597
v 0.537650 0.000231 -1.319082
v 0.616153 0.021863 -1.382588
v 0.633795 0.021865 -1.364875
v 0.642615 0.000216 -1.356014
v 0.633792 -0.021436 -1.364866
v 0.616150 -0.021439 -1.382579
v 0.607330 0.000211 -1.391440
v 0.688424 0.021843 -1.451636
v 0.705313 0.021845 -1.433204
v 0.713756 0.000196 -1.423983
v 0.705310 -0.021456 -1.433195
v 0.688420 -0.021459 -1.451627
v 0.679977 0.000190 -1.460847
v 0.763463 0.021823 -1.517572
v 0.779567 0.021826 -1.498450
v 0.787618 0.000176 -1.488885
v 0.779564 -0.021476 -1.498441
v 0.763459 -0.021479 -1.517562
v 0.755409 0.000170 -1.527128
v 0.841086 0.021803 -1.580216
v 0.856372 0.021806 -1.560434
v 0.864013 0.000157 -1.550538
v 0.856368 -0.021495 -1.560424
v 0.841082 -0.021498 -1.580207
v 0.833441 0.000151 -1.590102
v 0.921109 0.021784 -1.639390
v 0.935539 0.021787 -1.618974
v 0.942752 0.000138 -1.608762
v 0.935536 -0.021514 -1.618965
v 0.921106 -0.021517 -1.639380
v 0.913893 0.000132 -1.649593
v 1.003349 0.021765 -1.694913
v 1.016883 0.021769 -1.673893
v 1.023648 0.000120 -1.663378
v 1.016880 -0.021532 -1.673883
v 1.003346 -0.021536 -1.694903
v 0.996581 0.000113 -1.705418
v 1.087623 0.021748 -1.746606
v 1.100217 0.021751 -1.725010
v 1.106512 0.000103 -1.714207
v 1.100213 -0.021550 -1.725000
v 1.087620 -0.021554 -1.746597
v 1.081324 0.000095 -1.757400
v 1.173746 0.021731 -1.794289
v 1.185353 0.021735 -1.772146
v 1.191154 0.000086 -1.761070
v 1.185350 -0.021566 -1.772137
v 1.173743 -0.021570 -1.794279
v 1.167941 0.000078 -1.805355
v 1.261536 0.021715 -1.837780
v 1.272104 0.021719 -1.815124
v 1.277387 0.000071 -1.803791
v 1.272101 -0.021582 -1.815115
v 1.261532 -0.021586 -1.837771
v 1.256250 0.000062 -1.849104
v 1.350808 0.021701 -1.876899
v 1.360284 0.021705 -1.853765
v 1.365021 0.000057 -1.842193
v 1.360282 -0.021596 -1.853756
v 1.350805 -0.021601 -1.876890
v 1.346068 0.000048 -1.888462
v 1.441380 0.021688 -1.911464
v 1.449706 0.021692 -1.887891
v 1.453868 0.000044 -1.876100
v 1.449704 -0.021609 -1.887882
v 1.441377 -0.021614 -1.911455
v 1.437215 0.000035 -1.923246
v 1.533067 0.021676 -1.941292
v 1.540183 0.021681 -1.917326
v 1.543740 0.000033 -1.905339
v 1.540181 -0.021620 -1.917317
v 1.533065 -0.021625 -1.941283
v 1.529508 0.000023 -1.953271
v 1.625686 0.021667 -1.966202
v 1.631529 0.021671 -1.941894
v 1.634449 0.000023 -1.929736
v 1.631527 -0.021630 -1.941885
v 1.625684 -0.021635 -1.966193
v 1.622764 0.000014 -1.978351
v 1.719051 0.021659 -1.986008
v 1.723557 0.021664 -1.961418
v 1.725809 0.000015 -1.949118
v 1.723556 -0.021638 -1.961409
v 1.719050 -0.021643 -1.985999
v 1.716798 0.000006 -1.998299
v 1.812978 0.021653 -2.000529
v 1.816084 0.021658 -1.975723
v 1.817636 0.000010 -1.963315
v 1.816083 -0.021643 -1.975714
v 1.812977 -0.021648 -2.000520
v 1.811425 -0.000000 -2.012928
v 1.907280 0.021649 -2.009579
v 1.908924 0.021654 -1.984633
v 1.909746 0.000006 -1.972156
v 1.908924 -0.021647 -1.984625
v 1.907280 -0.021652 -2.009571
v 1.906458 -0.000004 -2.022048
v 2.001765 0.021648 -2.012975
v 2.001899 0.021653 -1.987975
v 2.001966 0.000005 -1.975471
v 2.001899 -0.021648 -1.987966
v 2.001765 -0.021653 -2.012966
v 2.001698 -0.000005 -2.025470
vt 0.000000 1.000000
vt 0.031250 1.000000
vt 0.031250 0.833333
vt 0.000000 0.833333
vt 0.000000 0.166667
vt 0.031250 0.166667
vt 0.031250 0.000000
vt 0.000000 0.000000
vt 0.000000 0.333333
vt 0.031250 0.333333
vt 0.000000 0.500000
vt 0.031250 0.500000
vt 0.000000 0.666667
vt 0.031250 0.666667
vt 0.062500 1.000000
vt 0.062500 0.833333
vt 0.062500 0.166667
vt 0.062500 0.000000
vt 0.062500 0.333333
vt 0.062500 0.500000
vt 0.062500 0.666667
vt 0.093750 1.000000
vt 0.093750 0.833333
vt 0.093750 0.166667
vt 0.093750 0.000000
vt 0.093750 0.333333
vt 0.093750 0.500000
vt 0.093750 0.666667
vt 0.125000 1.000000
vt 0.125000 0.833333
vt 0.125000 0.166667
vt 0.125000 0.000000
vt 0.125000 0.333333
vt 0.125000 0.500000
vt 0.125000 0.666667
vt 0.156250 1.000000
vt 0.156250 0.833333
vt 0.156250 0.166667
vt 0.156250 0.000000
vt 0.156250 0.333333
vt 0.156250 0.500000
vt 0.156250 0.666667
vt 0.187500 1.000000
vt 0.187500 0.833333
vt 0.187500 0.166667
vt 0.187500 0.000000
vt 0.187500 0.333333
vt 0.187500 0.500000
vt 0.187500 0.666667
vt 0.218750 1.000000
vt 0.218750 0.833333
vt 0.218750 0.166667
vt 0.218750 0.000000
vt 0.218750 0.333333
vt 0.218750 0.500000
vt 0.218750 0.666667
vt 0.250000 1.000000
vt 0.250000 0.833333
vt 0.250000 0.166667
vt 0.250000 0.000000
vt 0.250000 0.333333
vt 0.250000 0.500000
vt 0.250000 0.666667
vt 0.281250 1.000000
vt 0.281250 0.833333
vt 0.281250 0.166667
vt 0.281250 0.000000
vt 0.281250 0.333333
vt 0.281250 0.500000
vt 0.281250 0.666667
vt 0.312500 1.000000
vt 0.312500 0.833333
vt 0.312500 0.166667
vt 0.312500 0.000000
vt 0.312500 0.333333
vt 0.312500 0.500000
vt 0.312500 0.666667
vt 0.343750 1.000000
vt 0.343750 0.833333
vt 0.343750 0.166667
vt 0.343750 0.000000
vt 0.343750 0.333333
vt 0.343750 0.500000
vt 0.343750 0.666667
vt 0.375000 1.000000
vt 0.375000 0.833333
vt 0.375000 0.166667
vt 0.375000 0.000000
vt 0.375000 0.333333
vt 0.375000 0.500000
vt 0.375000 0.666667
vt 0.406250 1.000000
vt 0.406250 0.833333
vt 0.406250 0.166667
vt 0.406250 0.000000
vt 0.406250 0.333333
vt 0.406250 0.500000
vt 0.406250 0.666667
vt 0.437500 1.000000
vt 0.437500 0.833333
vt 0.437500 0.166667
vt 0.437500 0.000000
vt 0.437500 0.333333
vt 0.437500 0.500000
vt 0.437500 0.666667
vt 0.468750 1.000000
vt 0.468750 0.833333
vt 0.468750 0.166667
vt 0.468750 0.000000
vt 0.468750 0.333333
vt 0.468750 0.500000
vt 0.468750 0.666667
vt 0.500000 1.000000
vt 0.500000 0.833333
vt 0.500000 0.166667
vt 0.500000 0.000000
vt 0.500000 0.333333
vt 0.500000 0.500000
vt 0.500000 0.666667
vt 0.531250 1.000000
vt 0.531250 0.833333
vt 0.531250 0.166667
vt 0.531250 0.000000
vt 0.531250 0.333333
vt 0.531250 0.500000
vt 0.531250 0.666667
vt 0.562500 1.000000
vt 0.562500 0.833333
vt 0.562500 0.166667
vt 0.562500 0.000000
vt 0.562500 0.333333
vt 0.562500 0.500000
vt 0.562500 0.666667
vt 0.593750 1.000000
vt 0.593750 0.833333
vt 0.593750 0.166667
vt 0.593750 0.000000
vt 0.593750 0.333333
vt 0.593750 0.500000
vt 0.593750 0.666667
vt 0.625000 1.000000
vt 0.625000 0.833333
vt 0.625000 0.166667
vt 0.625000 0.000000
vt 0.625000 0.333333
vt 0.625000 0.500000
vt 0.625000 0.666667
vt 0.656250 1.000000
vt 0.656250 0.833333
vt 0.656250 0.166667
vt 0.656250 0.000000
vt 0.656250 0.333333
vt 0.656250 0.500000
vt 0.656250 0.666667
vt 0.687500 1.000000
vt 0.687500 0.833333
vt 0.687500 0.166667
vt 0.687500 0.000000
vt 0.687500 0.333333
vt 0.687500 0.500000
vt 0.687500 0.666667
vt 0.718750 1.000000
vt 0.718750 0.833333
vt 0.718750 0.166667
vt 0.718750 0.000000
vt 0.718750 0.333333
vt 0.718750 0.500000
vt 0.718750 0.666667
vt 0.750000 1.000000
vt 0.750000 0.833333
vt 0.750000 0.166667
vt 0.750000 0.000000
vt 0.750000 0.333333
vt 0.750000 0.500000
vt 0.750000 0.666667
vt 0.781250 1.000000
vt 0.781250 0.833333
vt 0.781250 0.166667
vt 0.781250 0.000000
vt 0.781250 0.333333
vt 0.781250 0.500000
vt 0.781250 0.666667
vt 0.812500 1.000000
vt 0.812500 0.833333
vt 0.812500 0.166667
vt 0.812500 0.000000
vt 0.812500 0.333333
vt 0.812500 0.500000
vt 0.812500 0.666667
vt 0.843750 1.000000
vt 0.843750 0.833333
vt 0.843750 0.166667
vt 0.843750 0.000000
vt 0.843750 0.333333
vt 0.843750 0.500000
vt 0.843750 0.666667
vt 0.875000 1.000000
vt 0.875000 0.833333
vt 0.875000 0.166667
vt 0.875000 0.000000
vt 0.875000 0.333333
vt 0.875000 0.500000
vt 0.875000 0.666667
vt 0.906250 1.000000
vt 0.906250 0.833333
vt 0.906250 0.166667
vt 0.906250 0.000000
vt 0.906250 0.333333
vt 0.906250 0.500000
vt 0.906250 0.666667
vt 0.937500 1.000000
vt 0.937500 0.833333
vt 0.937500 0.166667
vt 0.937500 0.000000
vt 0.937500 0.333333
vt 0.937500 0.500000
vt 0.937500 0.666667
vt 0.968750 1.000000
vt 0.968750 0.833333
vt 0.968750 0.166667
vt 0.968750 0.000000
vt 0.968750 0.333333
vt 0.968750 0.500000
vt 0.968750 0.666667
vt 1.000000 1.000000
vt 1.000000 0.833333
vt 1.000000 0.166667
vt 1.000000 0.000000
vt 1.000000 0.333333
vt 1.000000 0.500000
vt 1.000000 0.666667
vn -0.5073 0.8616 -0.0144
vn -0.5063 0.8618 -0.0298
vn -0.9983 0.0000 -0.0588
vn -0.9996 0.0000 -0.0284
vn 0.4925 0.8702 0.0140
vn 0.4918 0.8702 0.0290
vn 0.9996 0.0000 0.0284
vn 0.9983 0.0000 0.0588
vn 0.4925 -0.8702 0.0140
vn 0.4918 -0.8702 0.0290
vn -0.5073 -0.8616 -0.0144
vn -0.5063 -0.8618 -0.0298
vn -0.5034 0.8620 -0.0601
vn -0.9930 0.0000 -0.1185
vn 0.4894 0.8701 0.0584
vn 0.9930 0.0000 0.1185
vn 0.4894 -0.8701 0.0584
vn -0.5034 -0.8620 -0.0600
vn -0.4988 0.8621 -0.0891
vn -0.9844 0.0000 -0.1757
vn 0.4855 0.8699 0.0866
vn 0.9844 0.0000 0.1757
vn 0.4855 -0.8699 0.0867
vn -0.4988 -0.8621 -0.0890
vn -0.4928 0.8622 -0.1167
vn -0.9731 0.0000 -0.2304
vn 0.4801 0.8698 0.1136
vn 0.9731 0.0000 0.2304
vn 0.4801 -0.8698 0.1137
vn -0.4929 -0.8622 -0.1166
vn -0.4856 0.8624 -0.1430
vn -0.9593 0.0000 -0.2824
vn 0.4735 0.8697 0.1393
vn 0.9593 0.0000 0.2824
vn 0.4735 -0.8697 0.1395
vn -0.4856 -0.8624 -0.1429
vn -0.4773 0.8625 -0.1680
vn -0.9433 0.0000 -0.3318
vn 0.4659 0.8695 0.1638
vn 0.9433 0.0000 0.3318
vn 0.4658 -0.8695 0.1640
vn -0.4774 -0.8625 -0.1678
vn -0.4681 0.8626 -0.1917
vn -0.9255 0.0000 -0.3788
vn 0.4573 0.8694 0.1870
vn 0.9255 0.0000 0.3788
vn 0.4572 -0.8694 0.1873
vn -0.4682 -0.8626 -0.1915
vn -0.4581 0.8627 -0.2141
vn -0.9060 -0.0000 -0.4233
vn 0.4478 0.8693 0.2091
vn 0.9060 0.0000 0.4233
vn 0.4477 -0.8693 0.2093
vn -0.4581 -0.8627 -0.2139
vn -0.4473 0.8628 -0.2354
vn -0.8850 -0.0000 -0.4654
vn 0.4376 0.8692 0.2300
vn 0.8850 0.0000 0.4655
vn 0.4375 -0.8692 0.2303
vn -0.4474 -0.8628 -0.2351
vn -0.4360 0.8629 -0.2556
vn -0.8628 -0.0000 -0.5055
vn 0.4267 0.8691 0.2498
vn 0.8628 0.0000 0.5055
vn 0.4267 -0.8691 0.2502
vn -0.4360 -0.8629 -0.2553
vn -0.4240 0.8629 -0.2748
vn -0.8394 -0.0000 -0.5435
vn 0.4153 0.8691 0.2687
vn 0.8394 0.0000 0.5435
vn 0.4152 -0.8690 0.2690
vn -0.4241 -0.8630 -0.2745
vn -0.4115 0.8630 -0.2930
vn -0.8148 -0.0001 -0.5797
vn 0.4032 0.8690 0.2867
vn 0.8148 0.0001 0.5797
vn 0.4031 -0.8690 0.2870
vn -0.4116 -0.8631 -0.2926
vn -0.3985 0.8630 -0.3103
vn -0.7891 -0.0001 -0.6142
vn 0.3906 0.8690 0.3038
vn 0.7891 0.0001 0.6142
vn 0.3905 -0.8689 0.3041
vn -0.3986 -0.8631 -0.3100
vn -0.3850 0.8631 -0.3269
vn -0.7624 -0.0001 -0.6470
vn 0.3774 0.8690 0.3200
vn 0.7624 0.0001 0.6470
vn 0.3773 -0.8689 0.3204
vn -0.3851 -0.8632 -0.3265
vn -0.3709 0.8631 -0.3428
vn -0.7346 -0.0001 -0.6784
vn 0.3637 0.8689 0.3356
vn 0.7346 0.0001 0.6784
vn 0.3636 -0.8688 0.3360
vn -0.3710 -0.8632 -0.3424
vn -0.3563 0.8631 -0.3579
vn -0.7057 -0.0001 -0.7085
vn 0.3494 0.8689 0.3505
vn 0.7057 0.0001 0.7085
vn 0.3493 -0.8688 0.3509
vn -0.3564 -0.8632 -0.3576
vn -0.3410 0.8631 -0.3724
vn -0.6756 -0.0001 -0.7373
vn 0.3345 0.8689 0.3648
vn 0.6756 0.0001 0.7373
vn 0.3343 -0.8688 0.3651
vn -0.3412 -0.8632 -0.3721
vn -0.3252 0.8631 -0.3864
vn -0.6442 -0.0001 -0.7649
vn 0.3189 0.8690 0.3784
vn 0.6442 0.0001 0.7649
vn 0.3188 -0.8688 0.3788
vn -0.3254 -0.8632 -0.3860
vn -0.3087 0.8630 -0.3998
vn -0.6114 -0.0001 -0.7913
vn 0.3027 0.8690 0.3914
vn 0.6114 0.0001 0.7913
vn 0.3025 -0.8689 0.3918
vn -0.3088 -0.8632 -0.3994
vn -0.2915 0.8630 -0.4126
vn -0.5772 -0.0001 -0.8166
vn 0.2857 0.8690 0.4039
vn 0.5772 0.0001 0.8166
vn 0.2855 -0.8689 0.4043
vn -0.2916 -0.8631 -0.4122
vn -0.2734 0.8629 -0.4249
vn -0.5413 -0.0001 -0.8408
vn 0.2679 0.8691 0.4158
vn 0.5413 0.0001 0.8408
vn 0.2677 -0.8690 0.4162
vn -0.2735 -0.8631 -0.4245
vn -0.2545 0.8628 -0.4367
vn -0.5037 -0.0001 -0.8638
vn 0.2492 0.8692 0.4271
vn 0.5037 0.0001 0.8638
vn 0.2491 -0.8690 0.4275
vn -0.2546 -0.8630 -0.4363
vn -0.2346 0.8628 -0.4478
vn -0.4642 -0.0002 -0.8857
vn 0.2296 0.8692 0.4378
vn 0.4642 0.0002 0.8857
vn 0.2295 -0.8691 0.4382
vn -0.2347 -0.8629 -0.4474
vn -0.2137 0.8627 -0.4583
vn -0.4227 -0.0002 -0.9062
vn 0.2091 0.8693 0.4478
vn 0.4227 0.0002 0.9062
vn 0.2089 -0.8692 0.4482
vn -0.2138 -0.8628 -0.4580
vn -0.1916 0.8626 -0.4682
vn -0.3790 -0.0002 -0.9254
vn 0.1874 0.8694 0.4571
vn 0.3790 0.0002 0.9254
vn 0.1873 -0.8693 0.4575
vn -0.1917 -0.8628 -0.4678
vn -0.1684 0.8625 -0.4772
vn -0.3330 -0.0002 -0.9429
vn 0.1646 0.8695 0.4656
vn 0.3330 0.0002 0.9429
vn 0.1645 -0.8694 0.4660
vn -0.1686 -0.8627 -0.4769
vn -0.1440 0.8623 -0.4854
vn -0.2846 -0.0002 -0.9586
vn 0.1406 0.8697 0.4732
vn 0.2846 0.0002 0.9586
vn 0.1405 -0.8695 0.4735
vn -0.1441 -0.8625 -0.4850
vn -0.1183 0.8622 -0.4925
vn -0.2337 -0.0002 -0.9723
vn 0.1154 0.8698 0.4797
vn 0.2337 0.0002 0.9723
vn 0.1153 -0.8696 0.4800
vn -0.1184 -0.8624 -0.4921
vn -0.0913 0.8621 -0.4985
vn -0.1802 -0.0002 -0.9836
vn 0.0889 0.8699 0.4850
vn 0.1802 0.0002 0.9836
vn 0.0889 -0.8697 0.4854
vn -0.0913 -0.8623 -0.4981
vn -0.0629 0.8619 -0.5031
vn -0.1242 -0.0002 -0.9922
vn 0.0613 0.8701 0.4890
vn 0.1242 0.0002 0.9922
vn 0.0612 -0.8699 0.4894
vn -0.0630 -0.8621 -0.5027
vn -0.0333 0.8618 -0.5061
vn -0.0657 -0.0002 -0.9978
vn 0.0324 0.8702 0.4915
vn 0.0657 0.0002 0.9978
vn 0.0324 -0.8700 0.4919
vn -0.0333 -0.8620 -0.5058
vn -0.0182 0.8616 -0.5072
vn -0.0359 -0.0002 -0.9993
vn 0.0177 0.8702 0.4923
vn 0.0359 0.0002 0.9993
vn 0.0177 -0.8700 0.4927
vn -0.0182 -0.8618 -0.5069
usemtl None
s 1
f 1/1/1 7/2/2 12/3/3 6/4/4
f 2/5/5 8/6/6 7/7/2 1/8/1
f 3/9/7 9/10/8 8/6/6 2/5/5
f 4/11/9 10/12/10 9/10/8 3/9/7
f 5/13/11 11/14/12 10/12/10 4/11/9
f 6/4/4 12/3/3 11/14/12 5/13/11
f 7/2/2 13/15/13 18/16/14 12/3/3
f 8/6/6 14/17/15 13/18/13 7/7/2
f 9/10/8 15/19/16 14/17/15 8/6/6
f 10/12/10 16/20/17 15/19/16 9/10/8
f 11/14/12 17/21/18 16/20/17 10/12/10
f 12/3/3 18/16/14 17/21/18 11/14/12
f 13/15/13 19/22/19 24/23/20 18/16/14
f 14/17/15 20/24/21 19/25/19 13/18/13
f 15/19/16 21/26/22 20/24/21 14/17/15
f 16/20/17 22/27/23 21/26/22 15/19/16
f 17/21/18 23/28/24 22/27/23 16/20/17
f 18/16/14 24/23/20 23/28/24 17/21/18
f 19/22/19 25/29/25 30/30/26 24/23/20
f 20/24/21 26/31/27 25/32/25 19/25/19
f 21/26/22 27/33/28 26/31/27 20/24/21
f 22/27/23 28/34/29 27/33/28 21/26/22
f 23/28/24 29/35/30 28/34/29 22/27/23
f 24/23/20 30/30/26 29/35/30 23/28/24
f 25/29/25 31/36/31 36/37/32 30/30/26
f 26/31/27 32/38/33 31/39/31 25/32/25
f 27/33/28 33/40/34 32/38/33 26/31/27
f 28/34/29 34/41/35 33/40/34 27/33/28
f 29/35/30 35/42/36 34/41/35 28/34/29
f 30/30/26 36/37/32 35/42/36 29/35/30
f 31/36/31 37/43/37 42/44/38 36/37/32
f 32/38/33 38/45/39 37/46/37 31/39/31
f 33/40/34 39/47/40 38/45/39 32/38/33
f 34/41/35 40/48/41 39/47/40 33/40/34
f 35/42/36 41/49/42 40/48/41 34/41/35
f 36/37/32 42/44/38 41/49/42 35/42/36
f 37/43/37 43/50/43 48/51/44 42/44/38
f 38/45/39 44/52/45 43/53/43 37/46/37
f 39/47/40 45/54/46 44/52/45 38/45/39
f 40/48/41 46/55/47 45/54/46 39/47/40
f 41/49/42 47/56/48 46/55/47 40/48/41
f 42/44/38 48/51/44 47/56/48 41/49/42
f 43/50/43 49/57/49 54/58/50 48/51/44
f 44/52/45 50/59/51 49/60/49 43/53/43
f 45/54/46 51/61/52 50/59/51 44/52/45
f 46/55/47 52/62/53 51/61/52 45/54/46
f 47/56/48 53/63/54 52/62/53 46/55/47
f 48/51/44 54/58/50 53/63/54 47/56/48
f 49/57/49 55/64/55 60/65/56 54/58/50
f 50/59/51 56/66/57 55/67/55 49/60/49
f 51/61/52 57/68/58 56/66/57 50/59/51
f 52/62/53 58/69/59 57/68/58 51/61/52
f 53/63/54 59/70/60 58/69/59 52/62/53
f 54/58/50 60/65/56 59/70/60 53/63/54
f 55/64/55 61/71/61 66/72/62 60/65/56
f 56/66/57 62/73/63 61/74/61 55/67/55
f 57/68/58 63/75/64 62/73/63 56/66/57
f 58/69/59 64/76/65 63/75/64 57/68/58
f 59/70/60 65/77/66 64/76/65 58/69/59
f 60/65/56 66/72/62 65/77/66 59/70/60
f 61/71/61 67/78/67 72/79/68 66/72/62
f 62/73/63 68/80/69 67/81/67 61/74/61
f 63/75/64 69/82/70 68/80/69 62/73/63
f 64/76/65 70/83/71 69/82/70 63/75/64
f 65/77/66 71/84/72 70/83/71 64/76/65
f 66/72/62 72/79/68 71/84/72 65/77/66
f 67/78/67 73/85/73 78/86/74 72/79/68
f 68/80/69 74/87/75 73/88/73 67/81/67
f 69/82/70 75/89/76 74/87/75 68/80/69
f 70/83/71 76/90/77 75/89/76 69/82/70
f 71/84/72 77/91/78 76/90/77 70/83/71
f 72/79/68 78/86/74 77/91/78 71/84/72
f 73/85/73 79/92/79 84/93/80 78/86/74
f 74/87/75 80/94/81 79/95/79 73/88/73
f 75/89/76 81/96/82 80/94/81 74/87/75
f 76/90/77 82/97/83 81/96/82 75/89/76
f 77/91/78 83/98/84 82/97/83 76/90/77
f 78/86/74 84/93/80 83/98/84 77/91/78
f 79/92/79 85/99/85 90/100/86 84/93/80
f 80/94/81 86/101/87 85/102/85 79/95/79
f 81/96/82 87/103/88 86/101/87 80/94/81
f 82/97/83 88/104/89 87/103/88 81/96/82
f 83/98/84 89/105/90 88/104/89 82/97/83
f 84/93/80 90/100/86 89/105/90 83/98/84
f 85/99/85 91/106/91 96/107/92 90/100/86
f 86/101/87 92/108/93 91/109/91 85/102/85
f 87/103/88 93/110/94 92/108/93 86/101/87
f 88/104/89 94/111/95 93/110/94 87/103/88
f 89/105/90 95/112/96 94/111/95 88/104/89
f 90/100/86 96/107/92 95/112/96 89/105/90
f 91/106/91 97/113/97 102/114/98 96/107/92
f 92/108/93 98/115/99 97/116/97 91/109/91
f 93/110/94 99/117/100 98/115/99 92/108/93
f 94/111/95 100/118/101 99/117/100 93/110/94
f 95/112/96 101/119/102 100/118/101 94/111/95
f 96/107/92 102/114/98 101/119/102 95/112/96
f 97/113/97 103/120/103 108/121/104 102/114/98
f 98/115/99 104/122/105 103/123/103 97/116/97
f 99/117/100 105/124/106 104/122/105 98/115/99
f 100/118/101 106/125/107 105/124/106 99/117/100
f 101/119/102 107/126/108 106/125/107 100/118/101
f 102/114/98 108/121/104 107/126/108 101/119/102
f 103/120/103 109/127/109 114/128/110 108/121/104
f 104/122/105 110/129/111 109/130/109 103/123/103
f 105/124/106 111/131/112 110/129/111 104/122/105
f 106/125/107 112/132/113 111/131/112 105/124/106
f 107/126/108 113/133/114 112/132/113 106/125/107
f 108/121/104 114/128/110 113/133/114 107/126/108
f 109/127/109 115/134/115 120/135/116 114/128/110
f 110/129/111 116/136/117 115/137/115 109/130/109
f 111/131/112 117/138/118 116/136/117 110/129/111
f 112/132/113 118/139/119 117/138/118 111/131/112
f 113/133/114 119/140/120 118/139/119 112/132/113
f 114/128/110 120/135/116 119/140/120 113/133/114
f 115/134/115 121/141/121 126/142/122 120/135/116
f 116/136/117 122/143/123 121/144/121 115/137/115
f 117/138/118 123/145/124 122/143/123 116/136/117
f 118/139/119 124/146/125 123/145/124 117/138/118
f 119/140/120 125/147/126 124/146/125 118/139/119
f 120/135/116 126/142/122 125/147/126 119/140/120
f 121/141/121 127/148/127 132/149/128 126/142/122
f 122/143/123 128/150/129 127/151/127 121/144/121
f 123/145/124 129/152/130 128/150/129 122/143/123
f 124/146/125 130/153/131 129/152/130 123/145/124
f 125/147/126 131/154/132 130/153/131 124/146/125
f 126/142/122 132/149/128 131/154/132 125/147/126
f 127/148/127 133/155/133 138/156/134 132/149/128
f 128/150/129 134/157/135 133/158/133 127/151/127
f 129/152/130 135/159/136 134/157/135 128/150/129
f 130/153/131 136/160/137 135/159/136 129/152/130
f 131/154/132 137/161/138 136/160/137 130/153/131
f 132/149/128 138/156/134 137/161/138 131/154/132
f 133/155/133 139/162/139 144/163/140 138/156/134
f 134/157/135 140/164/141 139/165/139 133/158/133
f 135/159/136 141/166/142 140/164/141 134/157/135
f 136/160/137 142/167/143 141/166/142 135/159/136
f 137/161/138 143/168/144 142/167/143 136/160/137
f 138/156/134 144/163/140 143/168/144 137/161/138
f 139/162/139 145/169/145 150/170/146 144/163/140
f 140/164/141 146/171/147 145/172/145 139/165/139
f 141/166/142 147/173/148 146/171/147 140/164/141
f 142/167/143 148/174/149 147/173/148 141/166/142
f 143/168/144 149/175/150 148/174/149 142/167/143
f 144/163/140 150/170/146 149/175/150 143/168/144
f 145/169/145 151/176/151 156/177/152 150/170/146
f 146/171/147 152/178/153 151/179/151 145/172/145
f 147/173/148 153/180/154 152/178/153 146/171/147
f 148/174/149 154/181/155 153/180/154 147/173/148
f 149/175/150 155/182/156 154/181/155 148/174/149
f 150/170/146 156/177/152 155/182/156 149/175/150
f 151/176/151 157/183/157 162/184/158 156/177/152
f 152/178/153 158/185/159 157/186/157 151/179/151
f 153/180/154 159/187/160 158/185/159 152/178/153
f 154/181/155 160/188/161 159/187/160 153/180/154
f 155/182/156 161/189/162 160/188/161 154/181/155
f 156/177/152 162/184/158 161/189/162 155/182/156
f 157/183/157 163/190/163 168/191/164 162/184/158
f 158/185/159 164/192/165 163/193/163 157/186/157
f 159/187/160 165/194/166 164/192/165 158/185/159
f 160/188/161 166/195/167 165/194/166 159/187/160
f 161/189/162 167/196/168 166/195/167 160/188/161
f 162/184/158 168/191/164 167/196/168 161/189/162
f 163/190/163 169/197/169 174/198/170 168/191/164
f 164/192/165 170/199/171 169/200/169 163/193/163
f 165/194/166 171/201/172 170/199/171 164/192/165
f 166/195/167 172/202/173 171/201/172 165/194/166
f 167/196/168 173/203/174 172/202/173 166/195/167
f 168/191/164 174/198/170 173/203/174 167/196/168
f 169/197/169 175/204/175 180/205/176 174/198/170
f 170/199/171 176/206/177 175/207/175 169/200/169
f 171/201/172 177/208/178 176/206/177 170/199/171
f 172/202/173 178/209/179 177/208/178 171/201/172
f 173/203/174 179/210/180 178/209/179 172/202/173
f 174/198/170 180/205/176 179/210/180 173/203/174
f 175/204/175 181/211/181 186/212/182 180/205/176
f 176/206/177 182/213/183 181/214/181 175/207/175
f 177/208/178 183/215/184 182/213/183 176/206/177
f 178/209/179 184/216/185 183/215/184 177/208/178
f 179/210/180 185/217/186 184/216/185 178/209/179
f 180/205/176 186/212/182 185/217/186 179/210/180
f 181/211/181 187/218/187 192/219/188 186/212/182
f 182/213/183 188/220/189 187/221/187 181/214/181
f 183/215/184 189/222/190 188/220/189 182/213/183
f 184/216/185 190/223/191 189/222/190 183/215/184
f 185/217/186 191/224/192 190/223/191 184/216/185
f 186/212/182 192/219/188 191/224/192 185/217/186
f 187/218/187 193/225/193 198/226/194 192/219/188
f 188/220/189 194/227/195 193/228/193 187/221/187
f 189/222/190 195/229/196 194/227/195 188/220/189
f 190/223/191 196/230/197 195/229/196 189/222/190
f 191/224/192 197/231/198 196/230/197 190/223/191
f 192/219/188 198/226/194 197/231/198 191/224/192
