# Blender v2.83.0 OBJ File: 'RampCurved.blend'
# www.blender.org
mtllib RampCurved.mtl
o BezierCurve
v -1.000000 0.000000 -1.000000
v -0.769676 0.000000 -0.980324
v -0.574074 0.000000 -0.925926
v -0.406250 0.000000 -0.843750
v -0.259259 0.000000 -0.740741
v -0.126157 0.000000 -0.623843
v -0.000000 0.000000 -0.500000
v 0.126157 0.000000 -0.376157
v 0.259259 0.000000 -0.259259
v 0.406250 0.000000 -0.156250
v 0.574074 0.000000 -0.074074
v 0.769676 0.000000 -0.019676
v 1.000000 0.000000 0.000000
v 1.014599 0.000000 1.016110
v -1.000101 0.000000 1.001511
v -1.000000 1.000000 -1.000000
v -0.769676 1.000000 -0.980324
v -0.574074 1.000000 -0.925926
v -0.406250 1.000000 -0.843750
v -0.259259 1.000000 -0.740741
v -0.126157 1.000000 -0.623843
v -0.000000 1.000000 -0.500000
v 0.126157 1.000000 -0.376157
v 0.259259 1.000000 -0.259259
v 0.406250 1.000000 -0.156250
v 0.574074 1.000000 -0.074074
v 0.769676 1.000000 -0.019676
v 1.000000 1.000000 0.000000
v 1.014599 1.000000 1.016110
v -1.000101 1.000000 1.001511
vt 0.000000 0.000000
vt 0.000000 0.000000
vt 0.000000 0.000000
vt 0.000000 0.000000
vt 0.000000 0.000000
vt 0.000000 0.000000
vt 0.000000 0.000000
vt 0.000000 0.000000
vt 0.000000 0.000000
vt 0.000000 0.000000
vt 0.000000 0.000000
vt 0.000000 0.000000
vt 0.000000 0.000000
vt 0.000000 0.000000
vt 0.000000 0.000000
vt 0.000000 0.000000
vt 0.000000 0.000000
vt 0.000000 0.000000
vt 0.000000 0.000000
vt 0.000000 0.000000
vt 0.000000 0.000000
vt 0.000000 0.000000
vt 0.000000 0.000000
vt 0.000000 0.000000
vt 0.000000 0.000000
vt 0.000000 0.000000
vt 0.000000 0.000000
vt 0.000000 0.000000
vt 0.000000 0.000000
vt 0.000000 0.000000
vn 0.0000 -1.0000 0.0000
vn 0.0000 1.0000 0.0000
vn 0.2679 0.0000 -0.9634
vn 0.5739 0.0000 -0.8189
vn 0.0851 0.0000 -0.9964
vn 0.6599 0.0000 -0.7514
vn 0.9999 0.0000 -0.0144
vn 0.7005 0.0000 -0.7136
vn -0.0072 0.0000 1.0000
vn -1.0000 0.0000 -0.0001
vn 0.4398 0.0000 -0.8981
usemtl None
s off
f 1/1/1 2/2/1 3/3/1 4/4/1 5/5/1 6/6/1 7/7/1 8/8/1 9/9/1 10/10/1 11/11/1 12/12/1 13/13/1 14/14/1 15/15/1
f 16/16/2 30/17/2 29/18/2 28/19/2 27/20/2 26/21/2 25/22/2 24/23/2 23/24/2 22/25/2 21/26/2 20/27/2 19/28/2 18/29/2 17/30/2
f 12/12/3 11/11/3 26/21/3 27/20/3
f 5/5/4 4/4/4 19/28/4 20/27/4
f 13/13/5 12/12/5 27/20/5 28/19/5
f 6/6/6 5/5/6 20/27/6 21/26/6
f 14/14/7 13/13/7 28/19/7 29/18/7
f 7/7/8 6/6/8 21/26/8 22/25/8
f 15/15/9 14/14/9 29/18/9 30/17/9
f 8/8/8 7/7/8 22/25/8 23/24/8
f 1/1/10 15/15/10 30/17/10 16/16/10
f 9/9/6 8/8/6 23/24/6 24/23/6
f 2/2/5 1/1/5 16/16/5 17/30/5
f 10/10/4 9/9/4 24/23/4 25/22/4
f 3/3/3 2/2/3 17/30/3 18/29/3
f 11/11/11 10/10/11 25/22/11 26/21/11
f 4/4/11 3/3/11 18/29/11 19/28/11
