# Blender v2.83.0 OBJ File: 'Ramp.blend'
# www.blender.org
mtllib Ramp.mtl
o Plane
v -1.000000 0.000000 1.000000
v 1.000000 0.000000 1.000000
v -1.000000 0.000000 -1.000000
v -1.000000 0.000000 -1.000000
v -1.000000 0.000000 1.000000
v 1.000000 0.000000 1.000000
v -1.000000 1.000000 1.000000
v 1.000000 1.000000 1.000000
v -1.000000 1.000000 -1.000000
vt 0.000000 0.000000
vt 0.000000 1.000000
vt 1.000000 0.000000
vt 1.000000 0.000000
vt 0.000000 1.000000
vt 0.000000 1.000000
vt 1.000000 0.000000
vt 0.000000 0.000000
vt 0.000000 0.000000
vn 0.0000 -1.0000 0.0000
vn 0.7071 0.0000 -0.7071
vn 0.0000 0.0000 1.0000
vn 0.0000 1.0000 0.0000
vn -1.0000 0.0000 0.0000
usemtl None
s off
f 1/1/1 3/2/1 2/3/1
f 6/4/2 4/5/2 9/6/2 8/7/2
f 2/3/3 3/2/3 4/5/3 6/4/3
f 1/1/3 2/3/3 6/4/3 5/8/3
f 3/2/3 1/1/3 5/8/3 4/5/3
f 7/9/4 8/7/4 9/6/4
f 4/5/5 5/8/5 7/9/5 9/6/5
f 5/8/3 6/4/3 8/7/3 7/9/3
